<?xml version="1.0" standalone="no"?>
<!DOCTYPE svg PUBLIC "-//W3C//DTD SVG 20010904//EN"
 "http://www.w3.org/TR/2001/REC-SVG-20010904/DTD/svg10.dtd">
<svg version="1.0" xmlns="http://www.w3.org/2000/svg"
 width="250.000000pt" height="250.000000pt" viewBox="0 0 250.000000 250.000000"
 preserveAspectRatio="xMidYMid meet">
<metadata>
Created by potrace 1.14, written by Peter Selinger 2001-2017
</metadata>
<g transform="translate(0.000000,250.000000) scale(0.100000,-0.100000)"
fill="#000000" stroke="none">
<path d="M0 1250 l0 -1250 1250 0 1250 0 0 1250 0 1250 -1250 0 -1250 0 0
-1250z m291 471 c16 -16 29 -36 29 -44 0 -8 8 -25 19 -38 10 -13 22 -35 26
-49 4 -14 17 -38 27 -53 24 -34 90 -158 155 -289 33 -68 53 -98 66 -98 21 0
21 -11 17 301 -2 179 1 262 9 277 11 20 20 22 101 22 78 0 91 -2 100 -19 14
-27 14 -935 0 -962 -9 -17 -22 -19 -103 -19 -53 0 -102 5 -116 13 -14 7 -43
49 -71 102 -48 93 -87 165 -108 200 -6 11 -19 36 -27 55 -9 19 -29 58 -45 85
-31 53 -36 61 -56 113 -14 34 -27 40 -41 20 -4 -7 -10 -141 -13 -298 l-5 -285
-91 -3 c-74 -2 -95 0 -108 13 -14 15 -16 68 -16 485 0 413 2 470 16 484 12 12
37 16 110 16 92 0 97 -1 125 -29z m1325 14 c19 -13 21 -22 17 -87 -4 -50 -10
-77 -21 -85 -11 -9 -62 -13 -172 -13 -202 0 -200 1 -200 -118 0 -107 6 -131
35 -138 13 -3 90 -6 172 -7 181 -2 183 -3 183 -93 0 -101 -5 -104 -200 -104
-202 0 -193 8 -189 -181 4 -162 6 -159 -127 -159 -51 0 -95 4 -99 9 -3 6 -5
226 -5 491 0 265 2 485 5 491 4 5 126 9 293 9 236 0 291 -3 308 -15z m825 5
c16 -9 19 -22 19 -95 0 -56 -4 -86 -12 -92 -7 -4 -64 -10 -126 -13 -85 -4
-115 -9 -123 -20 -6 -9 -9 -156 -8 -379 1 -344 0 -365 -17 -378 -13 -10 -46
-13 -114 -11 l-95 3 -3 379 c-1 254 -6 384 -13 392 -8 9 -47 14 -132 16 l-122
3 -3 94 c-2 69 1 97 10 103 20 12 715 10 739 -2z"/>
</g>
</svg>
